<svg width="33" height="17" viewBox="0 0 33 17" fill="none" xmlns="http://www.w3.org/2000/svg">
<path d="M9.42399 12C11.296 12.928 12.128 11.184 12.128 11.184C11.824 12.384 10.832 13.472 9.51999 13.472C7.99999 13.472 7.85599 12.528 6.67199 10.88C5.83999 9.712 4.71999 9.472 3.48799 9.472L3.00799 11.408C2.87999 11.936 2.91199 12.384 3.05599 12.72C3.21599 13.056 3.47199 13.28 3.83999 13.344H-1.2219e-05C0.799988 13.2 1.53599 12.448 1.79199 11.408L4.15999 1.936C4.28799 1.44 4.25599 0.992 4.11199 0.655999C3.95199 0.304 3.69599 0.0799999 3.32799 0H5.61599H5.85599H9.59999C13.072 0 14.288 2.128 13.632 4.736C12.992 7.344 10.928 9.472 7.23199 9.472H5.11999C7.35999 9.872 7.85599 11.2 9.42399 12ZM5.79199 0.256L3.55199 9.216H6.54399C9.82399 9.216 11.792 7.216 12.4 4.736C13.024 2.256 12 0.256 8.78399 0.256H5.79199ZM14.336 9.824C14.336 9.824 14.352 9.808 14.368 9.792L14.336 9.824ZM22.2172 0H25.0492C24.1052 0.127999 23.1132 0.799999 22.4572 1.552L18.8092 5.984C18.4572 6.4 18.2332 6.848 18.1212 7.328L17.0972 11.408C16.9692 11.936 16.9852 12.384 17.1452 12.72C17.2892 13.056 17.5452 13.28 17.9132 13.344H14.0892C14.8732 13.2 15.6092 12.448 15.8652 11.408L16.8252 7.584C16.9372 7.136 16.9372 6.704 16.8092 6.32L15.2892 1.792C15.1772 1.44 14.9372 1.04 14.6332 0.704C14.3452 0.351999 13.9772 0.0799999 13.6092 0H17.4172C16.7452 0.224 16.4572 1.072 16.6332 1.584L18.2172 6.368L22.2492 1.456C22.4252 1.264 22.5212 1.056 22.5692 0.863999C22.6652 0.464 22.5372 0.112 22.2172 0ZM25.4842 0H32.4442C31.6602 0.144 30.9242 0.927999 30.6682 1.936L28.2682 11.584C27.9002 13.024 26.9882 14.336 25.8042 15.28C24.6202 16.224 23.1802 16.8 21.7402 16.8C24.3482 16.56 26.2842 14.592 27.0362 11.584L29.8522 0.256H28.6842C25.6602 0.256 25.5482 1.616 25.1322 3.232L25.4842 0Z" fill="black"/>
</svg>
